<svg width="23" height="36" viewBox="0 0 23 36" fill="none" xmlns="http://www.w3.org/2000/svg">
<path d="M10.5241 35.4545V0.909089H12.7372V35.4545H10.5241ZM16.3942 12.3118C16.2862 11.2232 15.8229 10.3776 15.0043 9.77486C14.1856 9.17211 13.0746 8.87074 11.6712 8.87074C10.7176 8.87074 9.91241 9.00568 9.25568 9.27557C8.59896 9.53646 8.09517 9.9008 7.74432 10.3686C7.40246 10.8364 7.23153 11.3672 7.23153 11.9609C7.21354 12.4557 7.317 12.8875 7.5419 13.2564C7.77581 13.6252 8.09517 13.9446 8.5 14.2145C8.90483 14.4754 9.37263 14.7048 9.90341 14.9027C10.4342 15.0916 11.0009 15.2536 11.6037 15.3885L14.0866 15.9822C15.2921 16.2521 16.3987 16.612 17.4062 17.0618C18.4138 17.5116 19.2865 18.0649 20.0241 18.7216C20.7618 19.3783 21.3331 20.152 21.7379 21.0426C22.1518 21.9332 22.3632 22.9543 22.3722 24.1058C22.3632 25.7971 21.9313 27.2635 21.0767 28.505C20.2311 29.7375 19.0076 30.6955 17.4062 31.3793C15.8139 32.054 13.8932 32.3913 11.6442 32.3913C9.41312 32.3913 7.46993 32.0495 5.81463 31.3658C4.16832 30.6821 2.88187 29.67 1.95526 28.3295C1.03764 26.9801 0.556345 25.3113 0.511364 23.3232H6.16548C6.22846 24.2498 6.49384 25.0234 6.96165 25.6442C7.43845 26.2559 8.07268 26.7192 8.86435 27.0341C9.66501 27.34 10.5691 27.4929 11.5767 27.4929C12.5663 27.4929 13.4254 27.349 14.1541 27.0611C14.8918 26.7732 15.4631 26.3729 15.8679 25.8601C16.2727 25.3473 16.4751 24.758 16.4751 24.0923C16.4751 23.4716 16.2907 22.9498 15.9219 22.527C15.562 22.1042 15.0313 21.7443 14.3295 21.4474C13.6368 21.1506 12.7867 20.8807 11.7791 20.6378L8.76989 19.8821C6.43987 19.3153 4.60014 18.4292 3.25071 17.2237C1.90128 16.0182 1.23106 14.3944 1.24006 12.3523C1.23106 10.679 1.67637 9.21709 2.57599 7.96662C3.48461 6.71615 4.73059 5.74006 6.31392 5.03835C7.89725 4.33665 9.6965 3.98579 11.7116 3.98579C13.7628 3.98579 15.553 4.33665 17.0824 5.03835C18.6207 5.74006 19.8172 6.71615 20.6719 7.96662C21.5265 9.21709 21.9673 10.6655 21.9943 12.3118H16.3942Z" fill="#DCBC0F"/>
</svg>
