<svg width="41" height="42" viewBox="0 0 41 42" fill="none" xmlns="http://www.w3.org/2000/svg">
<path d="M15.6128 0L14.5915 5.25716C12.8745 5.9047 11.2977 6.81236 9.91618 7.94678L4.86654 6.20524L0 14.6281L4.0446 18.1437C3.88911 19.0984 3.80859 19.983 3.80859 20.8333C3.80859 21.6849 3.89153 22.568 4.0446 23.523V23.527L0 27.0426L4.86654 35.4614L9.91211 33.724C11.2938 34.859 12.8741 35.7616 14.5915 36.4095L15.6128 41.6667H25.3377L26.359 36.4095C28.0772 35.7616 29.6521 34.8554 31.0343 33.7199L36.084 35.4614L40.9465 27.0426L36.9059 23.523C37.0614 22.5683 37.1419 21.6837 37.1419 20.8333C37.1419 19.9843 37.0609 19.1008 36.9059 18.1478V18.1437L40.9505 14.624L36.084 6.20524L31.0384 7.94271C29.6567 6.80767 28.0764 5.90507 26.359 5.25716L25.3377 0H15.6128ZM19.047 4.16667H21.9035L22.7132 8.33333L24.8861 9.15527C26.1958 9.6489 27.3725 10.3266 28.3936 11.1654L30.1921 12.6383L34.196 11.263L35.6242 13.7329L32.4259 16.5161L32.7922 18.807V18.811C32.9195 19.5922 32.9753 20.2474 32.9753 20.8333C32.9753 21.4192 32.9195 22.0744 32.7922 22.8556L32.4219 25.1465L35.6201 27.9297L34.1919 30.4036L30.1921 29.0243L28.3895 30.5013C27.3684 31.3401 26.1958 32.0178 24.8861 32.5114H24.882L22.7091 33.3333L21.8994 37.5H19.047L18.2373 33.3333L16.0645 32.5114C14.7547 32.0178 13.578 31.3401 12.557 30.5013L10.7585 29.0283L6.75456 30.4036L5.32633 27.9338L8.52865 25.1465L8.15837 22.8638V22.8597C8.0328 22.0752 7.97526 21.4181 7.97526 20.8333C7.97526 20.2474 8.03097 19.5923 8.15837 18.811L8.52865 16.5202L5.32633 13.737L6.75456 11.263L10.7585 12.6424L12.557 11.1654C13.578 10.3266 14.7547 9.6489 16.0645 9.15527L18.2373 8.33333L19.047 4.16667ZM20.4753 12.5C15.8992 12.5 12.1419 16.2572 12.1419 20.8333C12.1419 25.4094 15.8992 29.1667 20.4753 29.1667C25.0513 29.1667 28.8086 25.4094 28.8086 20.8333C28.8086 16.2572 25.0513 12.5 20.4753 12.5ZM20.4753 16.6667C22.7908 16.6667 24.6419 18.5178 24.6419 20.8333C24.6419 23.1489 22.7908 25 20.4753 25C18.1597 25 16.3086 23.1489 16.3086 20.8333C16.3086 18.5178 18.1597 16.6667 20.4753 16.6667Z" fill="black"/>
</svg>
