<svg width="50" height="50" viewBox="0 0 50 50" fill="none" xmlns="http://www.w3.org/2000/svg">
<path d="M20.3302 3.88867L19.291 9.14583C17.5439 9.79337 15.9396 10.701 14.5339 11.8354L9.39598 10.0939L4.44434 18.5168L8.55966 22.0324C8.40146 22.987 8.31953 23.8717 8.31953 24.722C8.31953 25.5736 8.40392 26.4566 8.55966 27.4116V27.4157L4.44434 30.9313L9.39598 39.3501L14.5298 37.6126C15.9356 38.7477 17.5436 39.6503 19.291 40.2982L20.3302 45.5553H30.2252L31.2644 40.2982C33.0125 39.6502 34.615 38.744 36.0214 37.6086L41.1594 39.3501L46.1069 30.9313L41.9957 27.4116C42.1539 26.457 42.2358 25.5723 42.2358 24.722C42.2358 23.873 42.1534 22.9895 41.9957 22.0365V22.0324L46.111 18.5127L41.1594 10.0939L36.0255 11.8314C34.6197 10.6963 33.0118 9.79374 31.2644 9.14583L30.2252 3.88867H20.3302ZM23.8245 8.05534H26.7309L27.5548 12.222L29.7656 13.0439C31.0982 13.5376 32.2955 14.2152 33.3344 15.054L35.1644 16.527L39.2383 15.1517L40.6915 17.6216L37.4373 20.4048L37.81 22.6956V22.6997C37.9396 23.4808 37.9963 24.1361 37.9963 24.722C37.9963 25.3079 37.9396 25.9631 37.81 26.7443L37.4332 29.0352L40.6874 31.8184L39.2342 34.2923L35.1644 32.9129L33.3303 34.39C32.2914 35.2288 31.0982 35.9064 29.7656 36.4001H29.7615L27.5506 37.222L26.7267 41.3887H23.8245L23.0006 37.222L20.7897 36.4001C19.4571 35.9064 18.2598 35.2288 17.2209 34.39L15.3909 32.917L11.317 34.2923L9.86382 31.8224L13.1221 29.0352L12.7454 26.7524V26.7484C12.6176 25.9639 12.5591 25.3067 12.5591 24.722C12.5591 24.1361 12.6158 23.4809 12.7454 22.6997L13.1221 20.4089L9.86382 17.6257L11.317 15.1517L15.3909 16.5311L17.2209 15.054C18.2598 14.2152 19.4571 13.5376 20.7897 13.0439L23.0006 12.222L23.8245 8.05534ZM25.2777 16.3887C20.6216 16.3887 16.7986 20.1459 16.7986 24.722C16.7986 29.2981 20.6216 33.0553 25.2777 33.0553C29.9338 33.0553 33.7567 29.2981 33.7567 24.722C33.7567 20.1459 29.9338 16.3887 25.2777 16.3887ZM25.2777 20.5553C27.6337 20.5553 29.5172 22.4064 29.5172 24.722C29.5172 27.0376 27.6337 28.8887 25.2777 28.8887C22.9216 28.8887 21.0381 27.0376 21.0381 24.722C21.0381 22.4064 22.9216 20.5553 25.2777 20.5553Z" fill="#DCBC0F"/>
</svg>
